<?xml version="1.0" encoding="iso-8859-1"?>
<!-- Generator: Adobe Illustrator 19.0.0, SVG Export Plug-In . SVG Version: 6.00 Build 0)  -->
<svg version="1.1" id="Layer_1" xmlns="http://www.w3.org/2000/svg" xmlns:xlink="http://www.w3.org/1999/xlink" x="0px" y="0px"
	 viewBox="0 0 512 512" style="enable-background:new 0 0 512 512;" xml:space="preserve" fill="#ff5e69">
<g>
	<g>
		<g>
			<path d="M502.246,271.574c-18.729,17.964-43.587,27.866-70.036,27.866H294.349v26.988c0,11.387-9.331,20.723-20.733,20.723
				h-35.233c-11.397,0-20.726-9.334-20.726-20.723v-26.988H79.788c-26.445,0-51.308-9.902-70.034-27.866
				c-3.558-3.418-6.815-7.045-9.754-10.852v188.132c0,19.121,15.642,34.749,34.749,34.749h442.506
				c19.105,0,34.744-15.629,34.744-34.749V260.722C509.056,264.529,505.812,268.156,502.246,271.574z"/>
			<path d="M477.256,97.896H34.749C15.642,97.896,0,113.537,0,132.643v88.637c3.359,14.177,10.788,27.213,21.791,37.763
				c15.468,14.84,36.07,23.02,57.997,23.02h137.869V255.08c0-11.4,9.329-20.731,20.726-20.731h35.233
				c11.402,0,20.733,9.329,20.733,20.731v26.982H432.21c21.926,0,42.534-8.179,57.997-23.02
				c10.993-10.565,18.435-23.59,21.793-37.773v-88.627C512,113.537,496.361,97.896,477.256,97.896z"/>
			<path d="M195.244,63.146c0-0.986,0.269-2.427,1.536-3.686c1.254-1.26,2.693-1.533,3.686-1.533h111.081
				c0.978,0,2.422,0.274,3.679,1.533c1.265,1.26,1.533,2.701,1.533,3.686v17.375h29.53V63.146
				c-0.003-8.891-3.392-17.782-10.171-24.568c-6.789-6.789-15.685-10.181-24.573-10.181H200.466
				c-8.893,0-17.795,3.392-24.579,10.181c-6.779,6.784-10.173,15.677-10.173,24.568v17.375h29.53V63.146z"/>
			<path d="M273.618,329.773c1.825,0,3.348-1.526,3.348-3.349v-26.987v-17.375V255.08c0-1.823-1.523-3.359-3.348-3.359h-35.236
				c-1.818,0-3.359,1.536-3.359,3.359v26.982v17.375v26.987c0,1.823,1.541,3.349,3.359,3.349H273.618z"/>
		</g>
	</g>
</g>
<g>
</g>
<g>
</g>
<g>
</g>
<g>
</g>
<g>
</g>
<g>
</g>
<g>
</g>
<g>
</g>
<g>
</g>
<g>
</g>
<g>
</g>
<g>
</g>
<g>
</g>
<g>
</g>
<g>
</g>
</svg>
